<svg width="25" height="25" viewBox="0 0 25 25" fill="none" xmlns="http://www.w3.org/2000/svg">
<path d="M11.1786 16.7183L18.2286 9.66831L16.8286 8.26831L11.1786 13.9183L8.32862 11.0683L6.92861 12.4683L11.1786 16.7183ZM5.57861 21.5183C5.02861 21.5183 4.55761 21.3223 4.16561 20.9303C3.77361 20.5383 3.57795 20.0676 3.57861 19.5183V5.51831C3.57861 4.96831 3.77462 4.49731 4.16662 4.10531C4.55861 3.71331 5.02928 3.51765 5.57861 3.51831H19.5786C20.1286 3.51831 20.5996 3.71431 20.9916 4.10631C21.3836 4.49831 21.5793 4.96898 21.5786 5.51831V19.5183C21.5786 20.0683 21.3826 20.5393 20.9906 20.9313C20.5986 21.3233 20.1279 21.519 19.5786 21.5183H5.57861ZM5.57861 19.5183H19.5786V5.51831H5.57861V19.5183Z" fill="black"/>
</svg>
