<svg width="25" height="25" viewBox="0 0 25 25" fill="none" xmlns="http://www.w3.org/2000/svg">
<path d="M7 18.5205C7.28333 18.5205 7.521 18.4245 7.713 18.2325C7.905 18.0405 8.00067 17.8032 8 17.5205V7.52051C8 7.23718 7.904 6.99951 7.712 6.80751C7.52 6.61551 7.28267 6.51984 7 6.52051C6.71667 6.52051 6.479 6.61651 6.287 6.80851C6.095 7.00051 5.99933 7.23784 6 7.52051V17.5205C6 17.8038 6.096 18.0415 6.288 18.2335C6.48 18.4255 6.71733 18.5212 7 18.5205ZM17.45 17.4955C17.7833 17.7288 18.125 17.7455 18.475 17.5455C18.825 17.3455 19 17.0455 19 16.6455V8.39551C19 7.99551 18.825 7.69951 18.475 7.50751C18.125 7.31551 17.7833 7.32818 17.45 7.54551L11.25 11.6955C10.95 11.8955 10.8 12.1705 10.8 12.5205C10.8 12.8705 10.95 13.1455 11.25 13.3455L17.45 17.4955Z" fill="black"/>
</svg>
