<svg width="25" height="25" viewBox="0 0 25 25" fill="none" xmlns="http://www.w3.org/2000/svg">
<path d="M18 18.5205C17.7167 18.5205 17.479 18.4245 17.287 18.2325C17.095 18.0405 16.9993 17.8032 17 17.5205V7.52051C17 7.23718 17.096 6.99951 17.288 6.80751C17.48 6.61551 17.7173 6.51984 18 6.52051C18.2833 6.52051 18.521 6.61651 18.713 6.80851C18.905 7.00051 19.0007 7.23784 19 7.52051V17.5205C19 17.8038 18.904 18.0415 18.712 18.2335C18.52 18.4255 18.2827 18.5212 18 18.5205ZM7.55 17.4955C7.21667 17.7288 6.875 17.7455 6.525 17.5455C6.175 17.3455 6 17.0455 6 16.6455V8.39551C6 7.99551 6.175 7.69951 6.525 7.50751C6.875 7.31551 7.21667 7.32818 7.55 7.54551L13.75 11.6955C14.05 11.8955 14.2 12.1705 14.2 12.5205C14.2 12.8705 14.05 13.1455 13.75 13.3455L7.55 17.4955Z" fill="black"/>
</svg>
