<svg width="25" height="25" viewBox="0 0 25 25" fill="none" xmlns="http://www.w3.org/2000/svg">
<path d="M15.19 7.23029C15.2827 7.3228 15.3562 7.43269 15.4064 7.55366C15.4566 7.67463 15.4824 7.80432 15.4824 7.93529C15.4824 8.06625 15.4566 8.19594 15.4064 8.31691C15.3562 8.43788 15.2827 8.54777 15.19 8.64029L11.31 12.5203L15.19 16.4003C15.377 16.5873 15.482 16.8409 15.482 17.1053C15.482 17.3697 15.377 17.6233 15.19 17.8103C15.003 17.9973 14.7494 18.1023 14.485 18.1023C14.2206 18.1023 13.967 17.9973 13.78 17.8103L9.18998 13.2203C9.09727 13.1278 9.02373 13.0179 8.97355 12.8969C8.92336 12.7759 8.89753 12.6463 8.89753 12.5153C8.89753 12.3843 8.92336 12.2546 8.97355 12.1337C9.02373 12.0127 9.09727 11.9028 9.18998 11.8103L13.78 7.22029C14.16 6.84029 14.8 6.84029 15.19 7.23029Z" fill="black"/>
</svg>
