<svg width="25" height="25" viewBox="0 0 25 25" fill="none" xmlns="http://www.w3.org/2000/svg">
<path d="M9.81002 7.23029C9.71732 7.3228 9.64377 7.43269 9.59359 7.55366C9.54341 7.67463 9.51758 7.80432 9.51758 7.93529C9.51758 8.06625 9.54341 8.19594 9.59359 8.31691C9.64377 8.43788 9.71732 8.54777 9.81002 8.64029L13.69 12.5203L9.81002 16.4003C9.62304 16.5873 9.518 16.8409 9.518 17.1053C9.518 17.3697 9.62304 17.6233 9.81002 17.8103C9.997 17.9973 10.2506 18.1023 10.515 18.1023C10.7794 18.1023 11.033 17.9973 11.22 17.8103L15.81 13.2203C15.9027 13.1278 15.9763 13.0179 16.0265 12.8969C16.0766 12.7759 16.1025 12.6463 16.1025 12.5153C16.1025 12.3843 16.0766 12.2546 16.0265 12.1337C15.9763 12.0127 15.9027 11.9028 15.81 11.8103L11.22 7.22029C10.84 6.84029 10.2 6.84029 9.81002 7.23029Z" fill="black"/>
</svg>
