<svg width="13" height="18" viewBox="0 0 13 18" fill="none" xmlns="http://www.w3.org/2000/svg">
<path d="M6.264 8.84733C5.71146 8.84733 5.18156 8.62784 4.79086 8.23714C4.40016 7.84644 4.18066 7.31653 4.18066 6.764C4.18066 6.21146 4.40016 5.68156 4.79086 5.29086C5.18156 4.90016 5.71146 4.68066 6.264 4.68066C6.81653 4.68066 7.34644 4.90016 7.73714 5.29086C8.12784 5.68156 8.34733 6.21146 8.34733 6.764C8.34733 7.03758 8.29344 7.30849 8.18875 7.56125C8.08405 7.81402 7.93059 8.04368 7.73714 8.23714C7.54368 8.43059 7.31402 8.58405 7.06125 8.68875C6.80849 8.79344 6.53758 8.84733 6.264 8.84733ZM6.264 0.930664C4.7169 0.930664 3.23317 1.54525 2.13921 2.63921C1.04525 3.73317 0.430664 5.2169 0.430664 6.764C0.430664 11.139 6.264 17.5973 6.264 17.5973C6.264 17.5973 12.0973 11.139 12.0973 6.764C12.0973 5.2169 11.4827 3.73317 10.3888 2.63921C9.29482 1.54525 7.81109 0.930664 6.264 0.930664Z" fill="black"/>
</svg>
